<mxfile host="app.diagrams.net" modified="2021-04-27T17:33:55.897Z" agent="5.0 (Macintosh; Intel Mac OS X 11_2_3) AppleWebKit/537.36 (KHTML, like Gecko) Chrome/89.0.4389.128 Safari/537.36" etag="yQYQZNm43CSVk1FNPxWM" version="14.6.6" type="github">
  <diagram id="kgpKYQtTHZ0yAKxKKP6v" name="Page-1">
    <mxGraphModel dx="1426" dy="683" grid="1" gridSize="10" guides="1" tooltips="1" connect="1" arrows="1" fold="1" page="1" pageScale="1" pageWidth="850" pageHeight="1100" math="0" shadow="0">
      <root>
        <mxCell id="0" />
        <mxCell id="1" parent="0" />
        <mxCell id="3nuBFxr9cyL0pnOWT2aG-1" value=":Object" style="shape=umlLifeline;perimeter=lifelinePerimeter;container=1;collapsible=0;recursiveResize=0;rounded=0;shadow=0;strokeWidth=1;" parent="1" vertex="1">
          <mxGeometry x="120" y="80" width="100" height="300" as="geometry" />
        </mxCell>
        <mxCell id="3nuBFxr9cyL0pnOWT2aG-2" value="" style="points=[];perimeter=orthogonalPerimeter;rounded=0;shadow=0;strokeWidth=1;" parent="3nuBFxr9cyL0pnOWT2aG-1" vertex="1">
          <mxGeometry x="45" y="70" width="10" height="190" as="geometry" />
        </mxCell>
        <mxCell id="3nuBFxr9cyL0pnOWT2aG-3" value="dispatch" style="verticalAlign=bottom;startArrow=oval;endArrow=block;startSize=8;shadow=0;strokeWidth=1;" parent="3nuBFxr9cyL0pnOWT2aG-1" target="3nuBFxr9cyL0pnOWT2aG-2" edge="1">
          <mxGeometry relative="1" as="geometry">
            <mxPoint x="-15" y="70" as="sourcePoint" />
          </mxGeometry>
        </mxCell>
        <mxCell id="3nuBFxr9cyL0pnOWT2aG-4" value="" style="points=[];perimeter=orthogonalPerimeter;rounded=0;shadow=0;strokeWidth=1;" parent="3nuBFxr9cyL0pnOWT2aG-1" vertex="1">
          <mxGeometry x="50" y="120" width="10" height="80" as="geometry" />
        </mxCell>
        <mxCell id="3nuBFxr9cyL0pnOWT2aG-5" value="Craigslist Database" style="shape=umlLifeline;perimeter=lifelinePerimeter;container=1;collapsible=0;recursiveResize=0;rounded=0;shadow=0;strokeWidth=1;" parent="1" vertex="1">
          <mxGeometry x="610" y="80" width="100" height="300" as="geometry" />
        </mxCell>
        <mxCell id="3nuBFxr9cyL0pnOWT2aG-6" value="" style="points=[];perimeter=orthogonalPerimeter;rounded=0;shadow=0;strokeWidth=1;" parent="3nuBFxr9cyL0pnOWT2aG-5" vertex="1">
          <mxGeometry x="45" y="80" width="10" height="160" as="geometry" />
        </mxCell>
        <mxCell id="3nuBFxr9cyL0pnOWT2aG-7" value="return" style="verticalAlign=bottom;endArrow=open;dashed=1;endSize=8;exitX=0;exitY=0.95;shadow=0;strokeWidth=1;" parent="1" source="3nuBFxr9cyL0pnOWT2aG-6" target="3nuBFxr9cyL0pnOWT2aG-2" edge="1">
          <mxGeometry relative="1" as="geometry">
            <mxPoint x="275" y="236" as="targetPoint" />
          </mxGeometry>
        </mxCell>
        <mxCell id="3nuBFxr9cyL0pnOWT2aG-8" value="Requesting info for free&#xa;stuff posted TODAY" style="verticalAlign=bottom;endArrow=block;entryX=0;entryY=0;shadow=0;strokeWidth=1;" parent="1" source="3nuBFxr9cyL0pnOWT2aG-2" target="3nuBFxr9cyL0pnOWT2aG-6" edge="1">
          <mxGeometry relative="1" as="geometry">
            <mxPoint x="275" y="160" as="sourcePoint" />
          </mxGeometry>
        </mxCell>
        <mxCell id="3nuBFxr9cyL0pnOWT2aG-9" value="callback" style="verticalAlign=bottom;endArrow=block;entryX=1;entryY=0;shadow=0;strokeWidth=1;" parent="1" source="3nuBFxr9cyL0pnOWT2aG-6" target="3nuBFxr9cyL0pnOWT2aG-4" edge="1">
          <mxGeometry relative="1" as="geometry">
            <mxPoint x="240" y="200" as="sourcePoint" />
          </mxGeometry>
        </mxCell>
        <mxCell id="3nuBFxr9cyL0pnOWT2aG-10" value="return" style="verticalAlign=bottom;endArrow=open;dashed=1;endSize=8;shadow=0;strokeWidth=1;entryX=1;entryY=0.95;entryDx=0;entryDy=0;" parent="1" source="3nuBFxr9cyL0pnOWT2aG-5" target="3nuBFxr9cyL0pnOWT2aG-4" edge="1">
          <mxGeometry relative="1" as="geometry">
            <mxPoint x="650" y="310" as="sourcePoint" />
          </mxGeometry>
        </mxCell>
        <mxCell id="VquwvGhQ8Ag2KfmF1bp--1" value="USER" style="shape=umlActor;verticalLabelPosition=bottom;verticalAlign=top;html=1;" vertex="1" parent="1">
          <mxGeometry x="150" width="30" height="60" as="geometry" />
        </mxCell>
        <mxCell id="VquwvGhQ8Ag2KfmF1bp--2" value="Front End to craigslistÂ &#xa;free section" style="shape=umlLifeline;perimeter=lifelinePerimeter;container=1;collapsible=0;recursiveResize=0;rounded=0;shadow=0;strokeWidth=1;" vertex="1" parent="1">
          <mxGeometry x="270" y="60" width="120" height="320" as="geometry" />
        </mxCell>
        <mxCell id="VquwvGhQ8Ag2KfmF1bp--3" value="" style="points=[];perimeter=orthogonalPerimeter;rounded=0;shadow=0;strokeWidth=1;" vertex="1" parent="VquwvGhQ8Ag2KfmF1bp--2">
          <mxGeometry x="45" y="80" width="10" height="160" as="geometry" />
        </mxCell>
        <mxCell id="VquwvGhQ8Ag2KfmF1bp--4" value="Craigslist backend&#xa;service" style="shape=umlLifeline;perimeter=lifelinePerimeter;container=1;collapsible=0;recursiveResize=0;rounded=0;shadow=0;strokeWidth=1;" vertex="1" parent="1">
          <mxGeometry x="440" y="70" width="100" height="300" as="geometry" />
        </mxCell>
        <mxCell id="VquwvGhQ8Ag2KfmF1bp--5" value="" style="points=[];perimeter=orthogonalPerimeter;rounded=0;shadow=0;strokeWidth=1;" vertex="1" parent="VquwvGhQ8Ag2KfmF1bp--4">
          <mxGeometry x="45" y="80" width="10" height="160" as="geometry" />
        </mxCell>
        <mxCell id="VquwvGhQ8Ag2KfmF1bp--6" value="back end requests database&amp;nbsp;&lt;br&gt;for info" style="text;html=1;align=center;verticalAlign=middle;resizable=0;points=[];autosize=1;strokeColor=none;" vertex="1" parent="1">
          <mxGeometry x="490" y="160" width="170" height="30" as="geometry" />
        </mxCell>
        <mxCell id="VquwvGhQ8Ag2KfmF1bp--7" value="user send rqst for free stuff" style="rounded=0;whiteSpace=wrap;html=1;" vertex="1" parent="1">
          <mxGeometry x="190" y="130" width="120" height="30" as="geometry" />
        </mxCell>
        <mxCell id="VquwvGhQ8Ag2KfmF1bp--8" value="Gives back data" style="text;html=1;strokeColor=none;fillColor=none;align=center;verticalAlign=middle;whiteSpace=wrap;rounded=0;" vertex="1" parent="1">
          <mxGeometry x="550" y="250" width="50" height="20" as="geometry" />
        </mxCell>
        <mxCell id="VquwvGhQ8Ag2KfmF1bp--10" value="" style="edgeStyle=orthogonalEdgeStyle;rounded=0;orthogonalLoop=1;jettySize=auto;html=1;" edge="1" parent="1" source="VquwvGhQ8Ag2KfmF1bp--9" target="VquwvGhQ8Ag2KfmF1bp--4">
          <mxGeometry relative="1" as="geometry" />
        </mxCell>
        <mxCell id="VquwvGhQ8Ag2KfmF1bp--11" value="" style="edgeStyle=orthogonalEdgeStyle;rounded=0;orthogonalLoop=1;jettySize=auto;html=1;" edge="1" parent="1" source="VquwvGhQ8Ag2KfmF1bp--9" target="VquwvGhQ8Ag2KfmF1bp--4">
          <mxGeometry relative="1" as="geometry" />
        </mxCell>
        <mxCell id="VquwvGhQ8Ag2KfmF1bp--12" value="" style="edgeStyle=orthogonalEdgeStyle;rounded=0;orthogonalLoop=1;jettySize=auto;html=1;" edge="1" parent="1" source="VquwvGhQ8Ag2KfmF1bp--9" target="VquwvGhQ8Ag2KfmF1bp--2">
          <mxGeometry relative="1" as="geometry" />
        </mxCell>
        <mxCell id="VquwvGhQ8Ag2KfmF1bp--14" value="" style="edgeStyle=orthogonalEdgeStyle;rounded=0;orthogonalLoop=1;jettySize=auto;html=1;" edge="1" parent="1" source="VquwvGhQ8Ag2KfmF1bp--9" target="VquwvGhQ8Ag2KfmF1bp--4">
          <mxGeometry relative="1" as="geometry" />
        </mxCell>
        <mxCell id="VquwvGhQ8Ag2KfmF1bp--9" value="backend returns info to front end" style="text;html=1;strokeColor=none;fillColor=none;align=center;verticalAlign=middle;whiteSpace=wrap;rounded=0;" vertex="1" parent="1">
          <mxGeometry x="350" y="240" width="40" height="20" as="geometry" />
        </mxCell>
        <mxCell id="VquwvGhQ8Ag2KfmF1bp--13" style="edgeStyle=orthogonalEdgeStyle;rounded=0;orthogonalLoop=1;jettySize=auto;html=1;" edge="1" parent="1" source="VquwvGhQ8Ag2KfmF1bp--9" target="VquwvGhQ8Ag2KfmF1bp--9">
          <mxGeometry relative="1" as="geometry" />
        </mxCell>
        <mxCell id="VquwvGhQ8Ag2KfmF1bp--15" value="Text" style="text;html=1;strokeColor=none;fillColor=none;align=center;verticalAlign=middle;whiteSpace=wrap;rounded=0;" vertex="1" parent="1">
          <mxGeometry x="400" y="230" width="40" height="20" as="geometry" />
        </mxCell>
        <mxCell id="VquwvGhQ8Ag2KfmF1bp--16" value="Text" style="text;html=1;strokeColor=none;fillColor=none;align=center;verticalAlign=middle;whiteSpace=wrap;rounded=0;" vertex="1" parent="1">
          <mxGeometry x="400" y="230" width="40" height="20" as="geometry" />
        </mxCell>
        <mxCell id="VquwvGhQ8Ag2KfmF1bp--17" value="Frontend returns to user" style="text;html=1;strokeColor=none;fillColor=none;align=center;verticalAlign=middle;whiteSpace=wrap;rounded=0;" vertex="1" parent="1">
          <mxGeometry x="210" y="240" width="40" height="20" as="geometry" />
        </mxCell>
        <mxCell id="VquwvGhQ8Ag2KfmF1bp--18" value="USER" style="shape=umlLifeline;perimeter=lifelinePerimeter;container=1;collapsible=0;recursiveResize=0;rounded=0;shadow=0;strokeWidth=1;" vertex="1" parent="1">
          <mxGeometry x="160" y="460" width="100" height="300" as="geometry" />
        </mxCell>
        <mxCell id="VquwvGhQ8Ag2KfmF1bp--19" value="" style="points=[];perimeter=orthogonalPerimeter;rounded=0;shadow=0;strokeWidth=1;" vertex="1" parent="VquwvGhQ8Ag2KfmF1bp--18">
          <mxGeometry x="45" y="70" width="10" height="190" as="geometry" />
        </mxCell>
        <mxCell id="VquwvGhQ8Ag2KfmF1bp--20" value="dispatch" style="verticalAlign=bottom;startArrow=oval;endArrow=block;startSize=8;shadow=0;strokeWidth=1;" edge="1" parent="VquwvGhQ8Ag2KfmF1bp--18" target="VquwvGhQ8Ag2KfmF1bp--19">
          <mxGeometry relative="1" as="geometry">
            <mxPoint x="-15" y="70" as="sourcePoint" />
          </mxGeometry>
        </mxCell>
        <mxCell id="VquwvGhQ8Ag2KfmF1bp--21" value="" style="points=[];perimeter=orthogonalPerimeter;rounded=0;shadow=0;strokeWidth=1;" vertex="1" parent="VquwvGhQ8Ag2KfmF1bp--18">
          <mxGeometry x="50" y="120" width="10" height="80" as="geometry" />
        </mxCell>
        <mxCell id="VquwvGhQ8Ag2KfmF1bp--22" value="CLIENT&#xa;end user browser" style="shape=umlLifeline;perimeter=lifelinePerimeter;container=1;collapsible=0;recursiveResize=0;rounded=0;shadow=0;strokeWidth=1;" vertex="1" parent="1">
          <mxGeometry x="390" y="480" width="120" height="320" as="geometry" />
        </mxCell>
        <mxCell id="VquwvGhQ8Ag2KfmF1bp--23" value="" style="points=[];perimeter=orthogonalPerimeter;rounded=0;shadow=0;strokeWidth=1;" vertex="1" parent="VquwvGhQ8Ag2KfmF1bp--22">
          <mxGeometry x="45" y="80" width="10" height="160" as="geometry" />
        </mxCell>
        <mxCell id="VquwvGhQ8Ag2KfmF1bp--24" value="Craigslist web server" style="shape=umlLifeline;perimeter=lifelinePerimeter;container=1;collapsible=0;recursiveResize=0;rounded=0;shadow=0;strokeWidth=1;" vertex="1" parent="1">
          <mxGeometry x="600" y="460" width="120" height="320" as="geometry" />
        </mxCell>
        <mxCell id="VquwvGhQ8Ag2KfmF1bp--25" value="" style="points=[];perimeter=orthogonalPerimeter;rounded=0;shadow=0;strokeWidth=1;" vertex="1" parent="VquwvGhQ8Ag2KfmF1bp--24">
          <mxGeometry x="45" y="80" width="10" height="160" as="geometry" />
        </mxCell>
        <mxCell id="VquwvGhQ8Ag2KfmF1bp--26" value="User requests books that have delivery&amp;nbsp;" style="text;html=1;strokeColor=none;fillColor=none;align=center;verticalAlign=middle;whiteSpace=wrap;rounded=0;" vertex="1" parent="1">
          <mxGeometry x="250" y="520" width="130" height="90" as="geometry" />
        </mxCell>
        <mxCell id="VquwvGhQ8Ag2KfmF1bp--27" value="rqst sent to CL&amp;nbsp;&lt;br&gt;web server" style="text;html=1;strokeColor=none;fillColor=none;align=center;verticalAlign=middle;whiteSpace=wrap;rounded=0;" vertex="1" parent="1">
          <mxGeometry x="530" y="510" width="90" height="70" as="geometry" />
        </mxCell>
        <mxCell id="VquwvGhQ8Ag2KfmF1bp--28" value="web server sends&lt;br&gt;info to browers" style="text;html=1;strokeColor=none;fillColor=none;align=center;verticalAlign=middle;whiteSpace=wrap;rounded=0;" vertex="1" parent="1">
          <mxGeometry x="480" y="630" width="100" height="50" as="geometry" />
        </mxCell>
        <mxCell id="VquwvGhQ8Ag2KfmF1bp--29" value="browers sends back info&lt;br&gt;" style="text;html=1;strokeColor=none;fillColor=none;align=center;verticalAlign=middle;whiteSpace=wrap;rounded=0;" vertex="1" parent="1">
          <mxGeometry x="250" y="660" width="90" height="60" as="geometry" />
        </mxCell>
        <mxCell id="VquwvGhQ8Ag2KfmF1bp--30" value="user sees books available for delivery" style="text;html=1;strokeColor=none;fillColor=none;align=center;verticalAlign=middle;whiteSpace=wrap;rounded=0;" vertex="1" parent="1">
          <mxGeometry x="100" y="600" width="110" height="80" as="geometry" />
        </mxCell>
        <mxCell id="VquwvGhQ8Ag2KfmF1bp--31" value="USER" style="shape=umlLifeline;perimeter=lifelinePerimeter;container=1;collapsible=0;recursiveResize=0;rounded=0;shadow=0;strokeWidth=1;" vertex="1" parent="1">
          <mxGeometry x="131" y="840" width="100" height="300" as="geometry" />
        </mxCell>
        <mxCell id="VquwvGhQ8Ag2KfmF1bp--32" value="" style="points=[];perimeter=orthogonalPerimeter;rounded=0;shadow=0;strokeWidth=1;" vertex="1" parent="VquwvGhQ8Ag2KfmF1bp--31">
          <mxGeometry x="45" y="70" width="10" height="190" as="geometry" />
        </mxCell>
        <mxCell id="VquwvGhQ8Ag2KfmF1bp--33" value="dispatch" style="verticalAlign=bottom;startArrow=oval;endArrow=block;startSize=8;shadow=0;strokeWidth=1;" edge="1" parent="VquwvGhQ8Ag2KfmF1bp--31" target="VquwvGhQ8Ag2KfmF1bp--32">
          <mxGeometry relative="1" as="geometry">
            <mxPoint x="-15" y="70" as="sourcePoint" />
          </mxGeometry>
        </mxCell>
        <mxCell id="VquwvGhQ8Ag2KfmF1bp--34" value="" style="points=[];perimeter=orthogonalPerimeter;rounded=0;shadow=0;strokeWidth=1;" vertex="1" parent="VquwvGhQ8Ag2KfmF1bp--31">
          <mxGeometry x="50" y="120" width="10" height="80" as="geometry" />
        </mxCell>
        <mxCell id="VquwvGhQ8Ag2KfmF1bp--35" value="END USERÂ &#xa;browser" style="shape=umlLifeline;perimeter=lifelinePerimeter;container=1;collapsible=0;recursiveResize=0;rounded=0;shadow=0;strokeWidth=1;" vertex="1" parent="1">
          <mxGeometry x="430" y="850" width="100" height="300" as="geometry" />
        </mxCell>
        <mxCell id="VquwvGhQ8Ag2KfmF1bp--36" value="" style="points=[];perimeter=orthogonalPerimeter;rounded=0;shadow=0;strokeWidth=1;" vertex="1" parent="VquwvGhQ8Ag2KfmF1bp--35">
          <mxGeometry x="45" y="70" width="10" height="190" as="geometry" />
        </mxCell>
        <mxCell id="VquwvGhQ8Ag2KfmF1bp--37" value="dispatch" style="verticalAlign=bottom;startArrow=oval;endArrow=block;startSize=8;shadow=0;strokeWidth=1;" edge="1" parent="VquwvGhQ8Ag2KfmF1bp--35" target="VquwvGhQ8Ag2KfmF1bp--36">
          <mxGeometry relative="1" as="geometry">
            <mxPoint x="-15" y="70" as="sourcePoint" />
          </mxGeometry>
        </mxCell>
        <mxCell id="VquwvGhQ8Ag2KfmF1bp--38" value="" style="points=[];perimeter=orthogonalPerimeter;rounded=0;shadow=0;strokeWidth=1;" vertex="1" parent="VquwvGhQ8Ag2KfmF1bp--35">
          <mxGeometry x="50" y="120" width="10" height="80" as="geometry" />
        </mxCell>
        <mxCell id="VquwvGhQ8Ag2KfmF1bp--39" value="Online store web&#xa;server" style="shape=umlLifeline;perimeter=lifelinePerimeter;container=1;collapsible=0;recursiveResize=0;rounded=0;shadow=0;strokeWidth=1;" vertex="1" parent="1">
          <mxGeometry x="710" y="850" width="100" height="300" as="geometry" />
        </mxCell>
        <mxCell id="VquwvGhQ8Ag2KfmF1bp--40" value="" style="points=[];perimeter=orthogonalPerimeter;rounded=0;shadow=0;strokeWidth=1;" vertex="1" parent="VquwvGhQ8Ag2KfmF1bp--39">
          <mxGeometry x="45" y="70" width="10" height="190" as="geometry" />
        </mxCell>
        <mxCell id="VquwvGhQ8Ag2KfmF1bp--41" value="dispatch" style="verticalAlign=bottom;startArrow=oval;endArrow=block;startSize=8;shadow=0;strokeWidth=1;" edge="1" parent="VquwvGhQ8Ag2KfmF1bp--39" target="VquwvGhQ8Ag2KfmF1bp--40">
          <mxGeometry relative="1" as="geometry">
            <mxPoint x="-15" y="70" as="sourcePoint" />
          </mxGeometry>
        </mxCell>
        <mxCell id="VquwvGhQ8Ag2KfmF1bp--42" value="" style="points=[];perimeter=orthogonalPerimeter;rounded=0;shadow=0;strokeWidth=1;" vertex="1" parent="VquwvGhQ8Ag2KfmF1bp--39">
          <mxGeometry x="50" y="120" width="10" height="80" as="geometry" />
        </mxCell>
        <mxCell id="VquwvGhQ8Ag2KfmF1bp--43" value="user writes review" style="text;html=1;strokeColor=none;fillColor=none;align=center;verticalAlign=middle;whiteSpace=wrap;rounded=0;" vertex="1" parent="1">
          <mxGeometry x="250" y="870" width="140" height="70" as="geometry" />
        </mxCell>
        <mxCell id="VquwvGhQ8Ag2KfmF1bp--44" value="sends the review data" style="text;html=1;strokeColor=none;fillColor=none;align=center;verticalAlign=middle;whiteSpace=wrap;rounded=0;" vertex="1" parent="1">
          <mxGeometry x="580" y="860" width="80" height="90" as="geometry" />
        </mxCell>
        <mxCell id="VquwvGhQ8Ag2KfmF1bp--45" value="review is saved, confirmation sent" style="text;html=1;strokeColor=none;fillColor=none;align=center;verticalAlign=middle;whiteSpace=wrap;rounded=0;" vertex="1" parent="1">
          <mxGeometry x="550" y="990" width="140" height="80" as="geometry" />
        </mxCell>
        <mxCell id="VquwvGhQ8Ag2KfmF1bp--46" value="Notification sent that review was accepted" style="text;html=1;strokeColor=none;fillColor=none;align=center;verticalAlign=middle;whiteSpace=wrap;rounded=0;" vertex="1" parent="1">
          <mxGeometry x="275" y="1000" width="125" height="60" as="geometry" />
        </mxCell>
      </root>
    </mxGraphModel>
  </diagram>
</mxfile>
